<?xml version="1.0" encoding="utf-8"?>
<!-- Generator: Adobe Illustrator 15.0.2, SVG Export Plug-In . SVG Version: 6.00 Build 0)  -->
<!DOCTYPE svg PUBLIC "-//W3C//DTD SVG 1.1//EN" "http://www.w3.org/Graphics/SVG/1.1/DTD/svg11.dtd">
<svg version="1.1" id="Layer_1" xmlns="http://www.w3.org/2000/svg" xmlns:xlink="http://www.w3.org/1999/xlink" x="0px" y="0px"
	 width="128px" height="128px" viewBox="0 0 128 128" enable-background="new 0 0 128 128" xml:space="preserve">
<rect fill="#59A8C1" width="128" height="128"/>
<polygon opacity="0.27" fill="#4E92A7" points="128,127.962 128,93.817 88.741,0.234 0.009,0 0,26.86 40.575,128 "/>
<text transform="matrix(1 0 0 1 2.9258 22.2578)" fill="#FFFFFF" font-family="'Roboto-Medium'" font-size="22">WP Style Kit</text>
<text transform="matrix(1 0 0 1 3.3921 37.6621)"><tspan x="0" y="0" fill="#FFFFFF" font-family="'Roboto-Light'" font-size="10.5">Custom Formatting Styles</tspan><tspan x="2.835" y="12.6" fill="#FFFFFF" font-family="'Roboto-Light'" font-size="10.5">For Your Wordpress Blog</tspan></text>
<g>
	<path fill="#FFFFFF" d="M7.746,90.283c0.826,10.154,7.44,18.448,16.335,21.905L9.113,79.662
		C7.954,82.965,7.442,86.555,7.746,90.283L7.746,90.283z M50.61,85.497c-0.26-3.178-1.575-5.282-2.692-6.9
		c-1.468-2.015-2.829-3.708-3.001-5.826c-0.192-2.354,1.412-4.694,3.933-4.899c0.112-0.008,0.226,0.006,0.339-0.005
		c-4.912-3.807-11.193-5.869-17.873-5.326c-8.965,0.729-16.478,5.967-20.492,13.308c0.598-0.024,1.173-0.061,1.658-0.099
		c2.679-0.22,6.797-0.89,6.797-0.89c1.378-0.193,1.713,1.83,0.342,2.101c0,0-1.373,0.281-2.908,0.483l11.597,27.03l4.238-17.297
		l-4.875-10.624c-1.393,0.038-2.713-0.027-2.713-0.027c-1.39,0.034-1.408-2.097-0.015-2.13c0,0,4.262-0.007,6.788-0.213
		c2.678-0.216,6.808-0.892,6.808-0.892c1.368-0.191,1.702,1.836,0.33,2.102c0,0-1.385,0.287-2.909,0.485l11.503,26.82l1.872-8.756
		C50.36,90.508,50.788,87.693,50.61,85.497L50.61,85.497z M34.034,90.402l-5.887,22.983c2.364,0.489,4.818,0.67,7.34,0.462
		c2.986-0.241,5.805-0.994,8.397-2.145c-0.074-0.108-0.154-0.216-0.207-0.335L34.034,90.402z M54.906,74.057
		c0.182,0.814,0.306,1.677,0.386,2.624c0.21,2.6-0.036,5.57-1.203,9.351l-5.998,23.286c7.275-5.066,11.729-13.743,10.96-23.204
		C58.688,81.652,57.208,77.545,54.906,74.057L54.906,74.057z M54.906,74.057"/>
	<path fill="#FFFFFF" d="M3.497,90.628c1.34,16.479,15.845,28.806,32.336,27.467c16.492-1.343,28.805-15.85,27.462-32.327
		C61.956,69.279,47.46,56.953,30.972,58.294C14.48,59.635,2.157,74.14,3.497,90.628L3.497,90.628z M4.873,90.52
		c-1.28-15.735,10.474-29.572,26.209-30.85c15.726-1.279,29.572,10.471,30.851,26.207c1.278,15.724-10.485,29.577-26.209,30.856
		C19.988,118.011,6.151,106.243,4.873,90.52L4.873,90.52z M4.873,90.52"/>
</g>
<g>
	<defs>
		<rect id="SVGID_1_" y="53.085" width="128" height="76.907"/>
	</defs>
	<clipPath id="SVGID_2_">
		<use xlink:href="#SVGID_1_"  overflow="visible"/>
	</clipPath>
	<rect x="61.732" y="82.855" clip-path="url(#SVGID_2_)" fill="#F6F6F6" width="3.048" height="2.113"/>
	<rect x="116.477" y="118.098" clip-path="url(#SVGID_2_)" fill="#F6F6F6" width="1.059" height="1.242"/>
	<path clip-path="url(#SVGID_2_)" fill="#F6F6F6" d="M91.088,99.428c0-0.127-0.004-0.214-0.006-0.257l-0.001-10.122
		c0-2.818-1.257-4.17-2.318-4.807c-1.139-0.688-2.282-0.693-2.327-0.693L64.555,83.55v0.927l21.882-0.001
		c0.152,0.001,3.72,0.077,3.72,4.573l0.001,10.162l0.001,0.019c0.001,0.017,0.129,1.825-1.009,3.056
		c-0.73,0.794-1.851,1.197-3.313,1.197l-11.748,0.004c-0.274-0.041-1.609-0.188-2.697,0.703c-0.896,0.741-1.352,1.976-1.351,3.657
		v10.024c-0.018,0.197-0.067,1.747,0.879,2.766c0.53,0.567,1.255,0.857,2.159,0.857l33.229-0.003v-0.928l-33.229,0.005
		c-0.643,0-1.128-0.181-1.481-0.557c-0.717-0.771-0.637-2.087-0.636-2.099v-0.03v-10.036c0-1.394,0.344-2.385,1.022-2.948
		c0.853-0.703,1.968-0.496,1.978-0.495l0.044,0.011l11.831-0.008c1.736-0.001,3.083-0.503,4-1.504
		C90.964,101.676,91.088,100.073,91.088,99.428"/>
	<polygon clip-path="url(#SVGID_2_)" fill="#F6F6F6" points="107.727,123.291 104.652,123.291 104.65,118.691 107.727,118.691 
		107.727,116.638 119.044,116.637 119.045,125.336 107.727,125.342 	"/>
	<g opacity="0.1" clip-path="url(#SVGID_2_)">
		<g>
			<defs>
				<rect id="SVGID_3_" x="104.652" y="116.64" width="14.393" height="8.699"/>
			</defs>
			<clipPath id="SVGID_4_">
				<use xlink:href="#SVGID_3_"  overflow="visible"/>
			</clipPath>
			<polygon clip-path="url(#SVGID_4_)" fill="#1D1D1B" points="107.727,123.291 104.652,123.291 107.727,123.291 113.126,120.166 
				119.044,116.637 119.045,125.336 107.727,125.342 			"/>
		</g>
	</g>
	<rect x="119.045" y="117.894" clip-path="url(#SVGID_2_)" fill="#F6F6F6" width="3.54" height="1.059"/>
	<rect x="119.045" y="123.022" clip-path="url(#SVGID_2_)" fill="#F6F6F6" width="3.54" height="1.059"/>
</g>
</svg>
